<mxfile host="app.diagrams.net" agent="Mozilla/5.0 (Macintosh; Intel Mac OS X 10_15_7) AppleWebKit/605.1.15 (KHTML, like Gecko) Version/18.4 Safari/605.1.15" version="26.2.2">
  <diagram name="Página-1" id="CDPxZ2y2oRvM8uiszXN1">
    <mxGraphModel dx="2040" dy="1270" grid="1" gridSize="10" guides="1" tooltips="1" connect="1" arrows="1" fold="1" page="1" pageScale="1" pageWidth="827" pageHeight="1169" math="0" shadow="0">
      <root>
        <mxCell id="0" />
        <mxCell id="1" parent="0" />
        <mxCell id="eul3kOhSNh3tley34Y3X-3" value="" style="group;movable=0;resizable=0;rotatable=0;deletable=0;editable=0;locked=1;connectable=0;" parent="1" vertex="1" connectable="0">
          <mxGeometry x="130" y="160" width="90" height="100" as="geometry" />
        </mxCell>
        <mxCell id="T51uil6T-Yv0GnbOR8lT-3" value="" style="group" vertex="1" connectable="0" parent="1">
          <mxGeometry x="350" y="200" width="116.46000000000001" height="140" as="geometry" />
        </mxCell>
        <mxCell id="eul3kOhSNh3tley34Y3X-7" value="" style="group" parent="T51uil6T-Yv0GnbOR8lT-3" vertex="1" connectable="0">
          <mxGeometry x="8" width="108.46000000000001" height="140" as="geometry" />
        </mxCell>
        <mxCell id="eul3kOhSNh3tley34Y3X-4" value="" style="image;aspect=fixed;perimeter=ellipsePerimeter;html=1;align=center;shadow=0;dashed=0;spacingTop=3;image=img/lib/active_directory/windows_server.svg;" parent="eul3kOhSNh3tley34Y3X-7" vertex="1">
          <mxGeometry x="19" y="40" width="65.6" height="80" as="geometry" />
        </mxCell>
        <mxCell id="T51uil6T-Yv0GnbOR8lT-16" value="" style="image;aspect=fixed;perimeter=ellipsePerimeter;html=1;align=center;shadow=0;dashed=0;spacingTop=3;image=img/lib/active_directory/internet_cloud.svg;" vertex="1" parent="eul3kOhSNh3tley34Y3X-7">
          <mxGeometry x="49.23000000000002" y="40" width="48" height="30.24" as="geometry" />
        </mxCell>
        <mxCell id="T51uil6T-Yv0GnbOR8lT-2" value="Server Railway" style="rounded=1;whiteSpace=wrap;html=1;" vertex="1" parent="eul3kOhSNh3tley34Y3X-7">
          <mxGeometry x="11" y="120" width="90" height="20" as="geometry" />
        </mxCell>
        <mxCell id="T51uil6T-Yv0GnbOR8lT-5" value="" style="group" vertex="1" connectable="0" parent="1">
          <mxGeometry x="650" y="130" width="120" height="100.6" as="geometry" />
        </mxCell>
        <mxCell id="eul3kOhSNh3tley34Y3X-5" value="" style="image;aspect=fixed;perimeter=ellipsePerimeter;html=1;align=center;shadow=0;dashed=0;spacingTop=3;image=img/lib/active_directory/databases.svg;" parent="T51uil6T-Yv0GnbOR8lT-5" vertex="1">
          <mxGeometry x="20" width="82.24" height="80.6" as="geometry" />
        </mxCell>
        <mxCell id="T51uil6T-Yv0GnbOR8lT-4" value="BBDD PostgreSQL&amp;nbsp;" style="rounded=1;whiteSpace=wrap;html=1;" vertex="1" parent="T51uil6T-Yv0GnbOR8lT-5">
          <mxGeometry y="80.6" width="120" height="20" as="geometry" />
        </mxCell>
        <mxCell id="T51uil6T-Yv0GnbOR8lT-13" value="" style="group" vertex="1" connectable="0" parent="1">
          <mxGeometry x="130.00000000000006" y="710" width="90" height="90" as="geometry" />
        </mxCell>
        <mxCell id="T51uil6T-Yv0GnbOR8lT-8" value="" style="image;aspect=fixed;perimeter=ellipsePerimeter;html=1;align=center;shadow=0;dashed=0;spacingTop=3;image=img/lib/active_directory/home_page.svg;" vertex="1" parent="T51uil6T-Yv0GnbOR8lT-13">
          <mxGeometry x="1.1099999999999568" width="88.89" height="80" as="geometry" />
        </mxCell>
        <mxCell id="T51uil6T-Yv0GnbOR8lT-12" value="Página Inicio" style="rounded=1;whiteSpace=wrap;html=1;" vertex="1" parent="T51uil6T-Yv0GnbOR8lT-13">
          <mxGeometry y="70" width="90" height="20" as="geometry" />
        </mxCell>
        <mxCell id="T51uil6T-Yv0GnbOR8lT-14" value="" style="group" vertex="1" connectable="0" parent="1">
          <mxGeometry x="130" y="230" width="90" height="125" as="geometry" />
        </mxCell>
        <mxCell id="T51uil6T-Yv0GnbOR8lT-7" value="" style="image;aspect=fixed;perimeter=ellipsePerimeter;html=1;align=center;shadow=0;dashed=0;spacingTop=3;image=img/lib/active_directory/workstation_client.svg;" vertex="1" parent="T51uil6T-Yv0GnbOR8lT-14">
          <mxGeometry x="6.189999999999998" width="76.5" height="90" as="geometry" />
        </mxCell>
        <mxCell id="T51uil6T-Yv0GnbOR8lT-11" value="Server FTP UOC" style="rounded=1;whiteSpace=wrap;html=1;" vertex="1" parent="T51uil6T-Yv0GnbOR8lT-14">
          <mxGeometry y="90" width="90" height="35" as="geometry" />
        </mxCell>
        <mxCell id="T51uil6T-Yv0GnbOR8lT-15" value="" style="group" vertex="1" connectable="0" parent="1">
          <mxGeometry x="664.6" y="340" width="90" height="130" as="geometry" />
        </mxCell>
        <mxCell id="T51uil6T-Yv0GnbOR8lT-6" value="" style="image;aspect=fixed;perimeter=ellipsePerimeter;html=1;align=center;shadow=0;dashed=0;spacingTop=3;image=img/lib/active_directory/mainframe_host.svg;" vertex="1" parent="T51uil6T-Yv0GnbOR8lT-15">
          <mxGeometry x="5.399999999999977" width="79.2" height="110" as="geometry" />
        </mxCell>
        <mxCell id="T51uil6T-Yv0GnbOR8lT-10" value="Backend" style="rounded=1;whiteSpace=wrap;html=1;" vertex="1" parent="T51uil6T-Yv0GnbOR8lT-15">
          <mxGeometry y="110" width="90" height="20" as="geometry" />
        </mxCell>
        <mxCell id="T51uil6T-Yv0GnbOR8lT-21" value="" style="group" vertex="1" connectable="0" parent="1">
          <mxGeometry x="575" y="700" width="90" height="100" as="geometry" />
        </mxCell>
        <mxCell id="T51uil6T-Yv0GnbOR8lT-17" value="" style="image;aspect=fixed;perimeter=ellipsePerimeter;html=1;align=center;shadow=0;dashed=0;spacingTop=3;image=img/lib/active_directory/domain_controller.svg;" vertex="1" parent="T51uil6T-Yv0GnbOR8lT-21">
          <mxGeometry x="20" width="56" height="80" as="geometry" />
        </mxCell>
        <mxCell id="T51uil6T-Yv0GnbOR8lT-20" value="API Aemet" style="rounded=1;whiteSpace=wrap;html=1;container=0;" vertex="1" parent="T51uil6T-Yv0GnbOR8lT-21">
          <mxGeometry y="80" width="90" height="20" as="geometry" />
        </mxCell>
        <mxCell id="T51uil6T-Yv0GnbOR8lT-23" value="" style="html=1;shadow=0;dashed=0;align=center;verticalAlign=middle;shape=mxgraph.arrows2.twoWayArrow;dy=0.6;dx=35;" vertex="1" parent="1">
          <mxGeometry x="250" y="740" width="310" height="30" as="geometry" />
        </mxCell>
        <mxCell id="T51uil6T-Yv0GnbOR8lT-25" value="" style="html=1;shadow=0;dashed=0;align=center;verticalAlign=middle;shape=mxgraph.arrows2.twoWayArrow;dy=0.6;dx=35;rotation=-90;" vertex="1" parent="1">
          <mxGeometry x="20" y="520" width="310" height="30" as="geometry" />
        </mxCell>
        <mxCell id="T51uil6T-Yv0GnbOR8lT-27" value="" style="html=1;shadow=0;dashed=0;align=center;verticalAlign=middle;shape=mxgraph.arrows2.twoWayArrow;dy=0.6;dx=35;" vertex="1" parent="1">
          <mxGeometry x="224" y="277.5" width="140" height="30" as="geometry" />
        </mxCell>
        <mxCell id="T51uil6T-Yv0GnbOR8lT-28" value="" style="html=1;shadow=0;dashed=0;align=center;verticalAlign=middle;shape=mxgraph.arrows2.twoWayArrow;dy=0.6;dx=35;rotation=-15;" vertex="1" parent="1">
          <mxGeometry x="469.32" y="242.32" width="180" height="30" as="geometry" />
        </mxCell>
        <mxCell id="T51uil6T-Yv0GnbOR8lT-29" value="" style="html=1;shadow=0;dashed=0;align=center;verticalAlign=middle;shape=mxgraph.arrows2.twoWayArrow;dy=0.6;dx=35;rotation=30;" vertex="1" parent="1">
          <mxGeometry x="464" y="369" width="180" height="30" as="geometry" />
        </mxCell>
      </root>
    </mxGraphModel>
  </diagram>
</mxfile>
